<?xml version="1.0" standalone="no"?><!DOCTYPE svg PUBLIC "-//W3C//DTD SVG 1.1//EN" "http://www.w3.org/Graphics/SVG/1.1/DTD/svg11.dtd"><svg t="1517556584685" class="icon" style="" viewBox="0 0 1024 1024" version="1.1" xmlns="http://www.w3.org/2000/svg" p-id="1251" xmlns:xlink="http://www.w3.org/1999/xlink" width="200" height="200"><defs><style type="text/css"></style></defs><path d="M512 85.333333c-235.733333 0-426.666667 190.933333-426.666667 426.666667s190.933333 426.666667 426.666667 426.666667 426.666667-190.933333 426.666667-426.666667-190.933333-426.666667-426.666667-426.666667zM512 213.333333c70.613333 0 128 57.386667 128 128 0 70.826667-57.386667 128-128 128s-128-57.173333-128-128c0-70.613333 57.386667-128 128-128zM512 819.2c-106.88 0-200.746667-54.613333-256-137.386667 1.066667-84.693333 170.88-131.413333 256-131.413333s254.72 46.72 256 131.413333c-55.253333 82.773333-149.12 137.386667-256 137.386667z" p-id="1252" fill="#e6e6e6"></path></svg>